<svg width="32" height="32" viewBox="0 0 32 32" fill="none" xmlns="http://www.w3.org/2000/svg">
<g clip-path="url(#clip0)">
<path d="M10.3457 20.7491H27.1469C27.563 20.7491 27.9279 20.474 28.0406 20.0744L31.7606 7.05496C31.8405 6.77429 31.7858 6.47278 31.6097 6.23957C31.4334 6.00708 31.1593 5.86977 30.8667 5.86977H8.19884L7.53407 2.87845C7.43963 2.45247 7.06184 2.14999 6.62593 2.14999H0.984265C0.470374 2.14999 0.0543213 2.56605 0.0543213 3.07994C0.0543213 3.59407 0.470374 4.00988 0.984265 4.00988H5.87955L9.23776 19.1215C8.24969 19.5511 7.55587 20.5346 7.55587 21.6791C7.55587 23.2173 8.80742 24.4689 10.3457 24.4689H27.1469C27.6611 24.4689 28.0769 24.0531 28.0769 23.5389C28.0769 23.0251 27.6611 22.609 27.1469 22.609H10.3457C9.83351 22.609 9.41576 22.1922 9.41576 21.6791C9.41576 21.1659 9.83351 20.7491 10.3457 20.7491Z" fill="white"/>
<path d="M9.41577 27.2587C9.41577 28.7973 10.6673 30.0486 12.2058 30.0486C13.7441 30.0486 14.9957 28.7973 14.9957 27.2587C14.9957 25.7205 13.7441 24.4689 12.2058 24.4689C10.6673 24.4689 9.41577 25.7205 9.41577 27.2587Z" fill="white"/>
<path d="M22.4972 27.2587C22.4972 28.7973 23.7487 30.0486 25.287 30.0486C26.8255 30.0486 28.0769 28.7973 28.0769 27.2587C28.0769 25.7205 26.8255 24.4689 25.287 24.4689C23.7487 24.4689 22.4972 25.7205 22.4972 27.2587Z" fill="white"/>
</g>
<defs>
<clipPath id="clip0">
<rect width="31.7421" height="31.7421" fill="white" transform="translate(0.0543213 0.228119)"/>
</clipPath>
</defs>
</svg>
