<svg width="17" height="17" viewBox="0 0 17 17" fill="none" xmlns="http://www.w3.org/2000/svg">
<g clip-path="url(#clip0)">
<path d="M16.4584 11.78L14.2256 9.54714C13.4281 8.74969 12.0725 9.0687 11.7535 10.1053C11.5143 10.8231 10.7168 11.2218 9.99912 11.0623C8.40423 10.6636 6.25112 8.5902 5.8524 6.91557C5.61317 6.19783 6.09163 5.40039 6.80934 5.16119C7.84601 4.84221 8.16499 3.48655 7.36755 2.6891L5.1347 0.456257C4.49674 -0.101955 3.53981 -0.101955 2.9816 0.456257L1.46645 1.9714C-0.0486954 3.56629 1.62594 7.79276 5.37393 11.5408C9.12193 15.2887 13.3484 17.0432 14.9433 15.4482L16.4584 13.9331C17.0167 13.2951 17.0167 12.3382 16.4584 11.78Z" fill="white"/>
</g>
<defs>
<clipPath id="clip0">
<rect width="16" height="16" fill="white" transform="translate(0.893921 0.0375977)"/>
</clipPath>
</defs>
</svg>
