<svg width="53" height="54" viewBox="0 0 53 54" fill="none" xmlns="http://www.w3.org/2000/svg">
<g clip-path="url(#clip0)">
<path d="M3.3125 3.8975C-0.852414 8.22363 2.5928e-06 12.8192 2.5928e-06 26.7803C2.5928e-06 38.374 -2.02283 49.9965 8.56392 52.7326C11.8698 53.5828 41.1611 53.5828 44.4626 52.7282C48.8704 51.5909 52.4567 48.0156 52.947 41.7815C53.0154 40.9114 53.0155 12.6646 52.9448 11.7768C52.4236 5.13637 48.336 1.30933 42.9499 0.534208C41.7154 0.355333 41.4681 0.302333 35.1346 0.291291C12.6692 0.302333 7.74463 -0.698043 3.3125 3.8975Z" fill="url(#paint0_linear)"/>
<path d="M26.4956 7.22348C18.4772 7.22348 10.8628 6.51018 7.95444 13.9744C6.75311 17.0572 6.92757 21.0609 6.92757 26.7937C6.92757 31.8243 6.76636 36.5524 7.95444 39.6109C10.8562 47.0795 18.5324 46.364 26.4912 46.364C34.1696 46.364 42.0864 47.1634 45.0302 39.6109C46.2337 36.4971 46.057 32.5531 46.057 26.7937C46.057 19.1485 46.4788 14.2129 42.771 10.5073C39.0169 6.7531 33.9399 7.22348 26.4868 7.22348H26.4956ZM24.7422 10.7502C41.4681 10.7237 43.5969 8.86427 42.4221 34.6951C42.0047 43.831 35.0485 42.8284 26.4978 42.8284C10.907 42.8284 10.4587 42.3824 10.4587 26.7849C10.4587 11.0064 11.6954 10.759 24.7422 10.7458V10.7502ZM36.941 13.9986C35.6447 13.9986 34.5936 15.0498 34.5936 16.3461C34.5936 17.6424 35.6447 18.6936 36.941 18.6936C38.2373 18.6936 39.2885 17.6424 39.2885 16.3461C39.2885 15.0498 38.2373 13.9986 36.941 13.9986ZM26.4956 16.7436C20.9461 16.7436 16.4477 21.2442 16.4477 26.7937C16.4477 32.3433 20.9461 36.8416 26.4956 36.8416C32.0452 36.8416 36.5413 32.3433 36.5413 26.7937C36.5413 21.2442 32.0452 16.7436 26.4956 16.7436ZM26.4956 20.2703C35.1192 20.2703 35.1302 33.3171 26.4956 33.3171C17.8743 33.3171 17.861 20.2703 26.4956 20.2703Z" fill="white"/>
</g>
<defs>
<linearGradient id="paint0_linear" x1="3.41413" y1="49.9061" x2="52.672" y2="7.27399" gradientUnits="userSpaceOnUse">
<stop stop-color="#FFDD55"/>
<stop offset="0.5" stop-color="#FF543E"/>
<stop offset="1" stop-color="#C837AB"/>
</linearGradient>
<clipPath id="clip0">
<rect width="53" height="53" fill="white" transform="translate(0 0.291016)"/>
</clipPath>
</defs>
</svg>
