<svg width="17" height="17" viewBox="0 0 17 17" fill="none" xmlns="http://www.w3.org/2000/svg">
<g clip-path="url(#clip0)">
<path d="M11.468 8.59355L16.862 12.0036V5.03955L11.468 8.59355Z" fill="white"/>
<path d="M0.861938 5.03955V12.0036L6.25594 8.59355L0.861938 5.03955Z" fill="white"/>
<path d="M15.8619 3.01172H1.86194C1.36294 3.01172 0.966937 3.38372 0.891937 3.86272L8.86193 9.11372L16.8319 3.86272C16.7569 3.38372 16.3609 3.01172 15.8619 3.01172Z" fill="white"/>
<path d="M10.552 9.19778L9.13695 10.1298C9.05295 10.1848 8.95795 10.2118 8.86195 10.2118C8.76595 10.2118 8.67095 10.1848 8.58695 10.1298L7.17195 9.19678L0.893951 13.1678C0.970951 13.6428 1.36495 14.0118 1.86195 14.0118H15.862C16.359 14.0118 16.753 13.6428 16.83 13.1678L10.552 9.19778Z" fill="white"/>
</g>
<defs>
<clipPath id="clip0">
<rect width="16" height="16" fill="white" transform="translate(0.861938 0.511719)"/>
</clipPath>
</defs>
</svg>
