<svg width="53" height="56" viewBox="0 0 53 56" fill="none" xmlns="http://www.w3.org/2000/svg">
<g clip-path="url(#clip0)">
<path d="M26.5 55.291C41.1355 55.291 53 42.9788 53 27.791C53 12.6032 41.1355 0.291016 26.5 0.291016C11.8645 0.291016 0 12.6032 0 27.791C0 42.9788 11.8645 55.291 26.5 55.291Z" fill="#3B5998"/>
<path d="M33.1621 28.8675H28.4335V46.8446H21.2692V28.8675H17.8619V22.5496H21.2692V18.4612C21.2692 15.5376 22.6075 10.9595 28.4972 10.9595L33.804 10.9825V17.1151H29.9536C29.322 17.1151 28.4339 17.4425 28.4339 18.8372V22.5555H33.788L33.1621 28.8675Z" fill="white"/>
</g>
<defs>
<clipPath id="clip0">
<rect width="53" height="55" fill="white" transform="translate(0 0.291016)"/>
</clipPath>
</defs>
</svg>
