<svg width="16" height="17" viewBox="0 0 16 17" fill="none" xmlns="http://www.w3.org/2000/svg">
<g clip-path="url(#clip0)">
<path d="M14.6353 11.2822C14.4083 11.1575 14.1233 11.2404 13.9987 11.4673C13.8741 11.6942 13.957 11.9792 14.1839 12.1038C14.7423 12.4106 15.0625 12.7506 15.0625 13.0368C15.0625 13.3868 14.5666 13.9293 13.1746 14.4022C11.7994 14.8695 9.96172 15.1268 8 15.1268C6.03828 15.1268 4.20056 14.8695 2.82541 14.4022C1.43344 13.9294 0.9375 13.3868 0.9375 13.0368C0.9375 12.7506 1.25775 12.4106 1.81613 12.1038C2.04303 11.9792 2.12591 11.6942 2.00125 11.4672C1.87659 11.2404 1.59169 11.1575 1.36472 11.2821C0.742156 11.6242 0 12.2062 0 13.0368C0 13.6735 0.437875 14.5812 2.52381 15.2899C3.99356 15.7893 5.93837 16.0643 8 16.0643C10.0616 16.0643 12.0064 15.7893 13.4762 15.2899C15.5621 14.5812 16 13.6735 16 13.0368C16 12.2062 15.2578 11.6242 14.6353 11.2822Z" fill="white"/>
<path d="M4.46101 13.7239C5.41258 13.9928 6.66942 14.1408 8.00002 14.1408C9.33061 14.1408 10.5875 13.9928 11.539 13.7239C12.7032 13.3951 13.2935 12.919 13.2935 12.3091C13.2935 11.6991 12.7032 11.2231 11.539 10.8943C11.2806 10.8213 10.9995 10.7573 10.7007 10.7026C10.5384 10.983 10.3684 11.2716 10.1906 11.5685C10.5214 11.6181 10.8319 11.679 11.1139 11.7508C11.9706 11.969 12.2837 12.2147 12.348 12.3091C12.2836 12.4036 11.9707 12.6493 11.1139 12.8674C10.303 13.074 9.25971 13.1918 8.16086 13.2023C8.10764 13.2063 8.05402 13.2085 8.00002 13.2085C7.94599 13.2085 7.89239 13.2063 7.83914 13.2023C6.7403 13.1918 5.69698 13.074 4.88608 12.8674C4.02933 12.6493 3.71636 12.4036 3.65201 12.3091C3.71636 12.2147 4.02936 11.969 4.88611 11.7508C5.16811 11.679 5.47864 11.6181 5.80942 11.5685C5.63164 11.2716 5.46161 10.983 5.29933 10.7026C5.00051 10.7573 4.71942 10.8213 4.46101 10.8943C3.29686 11.2231 2.70657 11.6992 2.70657 12.3091C2.70657 12.919 3.29686 13.3951 4.46101 13.7239Z" fill="white"/>
<path d="M7.99999 12.2713C8.41727 12.2713 8.7963 12.0587 9.01399 11.7025C10.5393 9.20697 12.3575 5.91803 12.3575 4.42143C12.3575 2.01871 10.4027 0.0639648 7.99999 0.0639648C5.59724 0.0639648 3.64249 2.01871 3.64249 4.42143C3.64249 5.91803 5.46071 9.20697 6.98599 11.7025C7.20367 12.0587 7.58274 12.2713 7.99999 12.2713ZM6.24852 4.12225C6.24852 3.15653 7.03424 2.37084 7.99999 2.37084C8.96574 2.37084 9.75146 3.15653 9.75146 4.12225C9.75146 5.088 8.96574 5.87368 7.99999 5.87368C7.03424 5.87368 6.24852 5.08803 6.24852 4.12225Z" fill="white"/>
</g>
<defs>
<clipPath id="clip0">
<rect width="16" height="16" fill="white" transform="translate(0 0.0639648)"/>
</clipPath>
</defs>
</svg>
