<svg width="53" height="62" viewBox="0 0 53 62" fill="none" xmlns="http://www.w3.org/2000/svg">
<path d="M33.1386 34.7645C32.1582 34.7645 31.3633 33.9696 31.3633 32.9892V23.4814C31.3633 22.5009 32.1582 21.706 33.1386 21.706H40.7449C41.7254 21.706 42.5203 22.5009 42.5203 23.4814V25.3828C42.5203 30.5559 38.3117 34.7645 33.1386 34.7645Z" fill="#82D2FF"/>
<path d="M10.3203 28.1089C9.33987 28.1089 8.54499 27.314 8.54499 26.3336V15.873C8.54499 12.6588 5.93006 10.044 2.716 10.044C1.99794 10.044 1.34971 9.61142 1.07489 8.94804C0.800069 8.28466 0.951091 7.52103 1.45883 7.01328C6.82494 1.64706 15.2993 1.07801 21.3132 5.56616C22.2759 6.28457 22.2607 7.73359 21.285 8.43236C18.5523 10.3894 12.0956 16.1708 12.0956 26.2994V26.3337C12.0956 27.3142 11.3008 28.1089 10.3203 28.1089Z" fill="#82D2FF"/>
<path d="M34.0557 25.2566H47.4009C50.4708 25.2566 52.9794 22.7749 52.9794 19.6762C52.9794 17.1936 51.3487 15.0848 49.1011 14.3643C48.341 6.75232 41.8988 0.788635 34.0899 0.788635H34.0557C19.989 0.788635 8.54492 12.2326 8.54492 26.3003C8.54492 40.1454 19.6314 51.4498 33.393 51.8025C34.214 57.2206 38.9029 61.3865 44.5467 61.3865H46.4502C47.4306 61.3865 48.2255 60.5916 48.2255 59.6111V57.7095C48.2255 54.5611 46.6649 51.772 44.2784 50.0695C46.6649 48.3669 48.2255 45.5779 48.2255 42.4294V40.5954C48.2255 39.6149 47.4306 38.8201 46.4502 38.8201H44.4802C38.9067 38.8201 34.2705 42.9071 33.4094 48.2421C27.3481 47.9072 22.5543 42.8937 22.5543 36.7579C22.5541 30.3962 27.7033 25.2566 34.0557 25.2566Z" fill="#5FAAEE"/>
<path d="M38.8437 15.7487C39.8242 15.7487 40.619 14.9539 40.619 13.9734C40.619 12.9929 39.8242 12.1981 38.8437 12.1981C37.8632 12.1981 37.0684 12.9929 37.0684 13.9734C37.0684 14.9539 37.8632 15.7487 38.8437 15.7487Z" fill="#2D3746"/>
<path d="M46.4501 38.8201H44.48C38.9066 38.8201 34.2704 42.9071 33.4093 48.2421C27.348 47.9073 22.5541 42.8937 22.5541 36.758C22.5541 30.3963 27.7033 25.2566 34.0557 25.2566H8.568C8.55404 25.603 8.54492 25.9506 8.54492 26.3003C8.54492 40.1454 19.6314 51.4499 33.393 51.8026C34.214 57.2206 38.9029 61.3865 44.5467 61.3865H46.4502C47.4306 61.3865 48.2255 60.5916 48.2255 59.6112V57.7095C48.2255 54.5611 46.6649 51.772 44.2784 50.0695C46.6649 48.3669 48.2255 45.5779 48.2255 42.4294V40.5954C48.2254 39.6149 47.4306 38.8201 46.4501 38.8201Z" fill="#3C82DC"/>
</svg>
