<svg width="16" height="17" viewBox="0 0 16 17" fill="none" xmlns="http://www.w3.org/2000/svg">
<g clip-path="url(#clip0)">
<path d="M14.4435 6.47217C14.4435 2.91895 11.5527 0.0283203 7.99939 0.0283203C4.44617 0.0283203 1.55542 2.91895 1.55542 6.47217C1.55542 10.0253 4.44617 12.9159 7.99939 12.9159C11.5527 12.9159 14.4435 10.0253 14.4435 6.47217ZM6.85071 9.22095L4.65063 7.02087L5.3175 6.35413L6.85071 7.88733L10.6814 4.05676L11.3483 4.72351L6.85071 9.22095Z" fill="#F8892C"/>
<path d="M2.04443 10.8369L0.09375 13.682L2.97778 13.1442L3.51562 16.0283L5.34229 13.3641C4.01611 12.8511 2.87402 11.9658 2.04443 10.8369Z" fill="#F8892C"/>
<path d="M13.9545 10.8369C13.1249 11.9658 11.9828 12.8511 10.6566 13.3641L12.4833 16.0283L13.0211 13.1442L15.9052 13.682L13.9545 10.8369Z" fill="#F8892C"/>
</g>
<defs>
<clipPath id="clip0">
<rect width="16" height="16" fill="white" transform="translate(0 0.0283203)"/>
</clipPath>
</defs>
</svg>
