<svg width="16" height="17" viewBox="0 0 16 17" fill="none" xmlns="http://www.w3.org/2000/svg">
<path fill-rule="evenodd" clip-rule="evenodd" d="M11.4062 3.69238C12.7935 4.01428 13.3241 4.82544 13.9894 5.94189H11.4062V3.69238ZM3.29932 6.03564C3.57092 6.03564 3.76807 6.16675 3.76807 6.47314C3.76807 6.73157 3.55896 6.94116 3.30066 6.94189H0.46875C0.209839 6.94189 0 7.15186 0 7.41064C0 7.66956 0.209839 7.87939 0.46875 7.87939H4.6875C4.94885 7.87939 5.15808 8.08911 5.15808 8.34814C5.15808 8.60706 4.94824 8.81689 4.68933 8.81689H0.46875C0.209839 8.81689 0 9.02673 0 9.28564C0 9.54456 0.209839 9.75439 0.46875 9.75439H1.5V11.1606C1.5 11.4196 1.70984 11.6294 1.96875 11.6294H2.91101C3.07898 12.4568 3.81006 13.0669 4.67188 13.0669C5.53369 13.0669 6.26477 12.4568 6.43274 11.6294H11.1923C11.3602 12.4568 12.0913 13.0669 12.9531 13.0669C13.8149 13.0669 14.546 12.4568 14.714 11.6294H15.5312C15.7902 11.6294 16 11.4196 16 11.1606V8.34814C16 6.97278 14.5493 6.88147 14.548 6.87939H10.9375C10.6786 6.87939 10.4688 6.66956 10.4688 6.41064V3.59814H1.96875C1.70984 3.59814 1.5 3.80798 1.5 4.06689V5.09814H0.9375C0.678589 5.09814 0.46875 5.30798 0.46875 5.56689C0.46875 5.82581 0.678589 6.03564 0.9375 6.03564H3.29932ZM13.5608 10.6624C13.8964 10.9979 13.8964 11.5422 13.5608 11.8778C13.021 12.4176 12.0938 12.0336 12.0938 11.27C12.0938 10.5066 13.021 10.1226 13.5608 10.6624ZM5.27954 10.6624C5.61511 10.9979 5.61511 11.5422 5.27954 11.8778C4.73975 12.4176 3.8125 12.0336 3.8125 11.27C3.8125 10.5066 4.73975 10.1226 5.27954 10.6624Z" fill="#F8892C"/>
</svg>
