<svg width="16" height="17" viewBox="0 0 16 17" fill="none" xmlns="http://www.w3.org/2000/svg">
<g clip-path="url(#clip0)">
<path d="M14.909 14.0768H12.3636C10.7595 14.0768 9.45454 12.7718 9.45454 11.1677C9.45454 9.56372 10.7595 8.25871 12.3636 8.25871H14.909C15.11 8.25871 15.2726 8.09606 15.2726 7.89507V6.80417C15.2726 6.04164 14.6812 5.4215 13.9339 5.36137L11.8455 1.7137C11.652 1.37634 11.3395 1.13522 10.9655 1.0351C10.5934 0.935657 10.2042 0.987883 9.87109 1.18175L2.71201 5.34964H1.45466C0.652475 5.34964 0.00012207 6.00196 0.00012207 6.80417V15.5313C0.00012207 16.3335 0.652441 16.9858 1.45466 16.9858H13.8181C14.6203 16.9858 15.2726 16.3335 15.2726 15.5313V14.4404C15.2726 14.2394 15.11 14.0768 14.909 14.0768ZM12.2965 3.96571L13.0888 5.34964H9.91939L12.2965 3.96571ZM4.15744 5.34964L10.2372 1.81028C10.4016 1.71404 10.5937 1.68847 10.7773 1.7375C10.963 1.7872 11.1179 1.90723 11.2141 2.07519L11.2149 2.07652L5.59302 5.34964H4.15744Z" fill="#F8892C"/>
<path d="M14.909 8.98584H12.3636C11.1605 8.98584 10.1818 9.96451 10.1818 11.1676C10.1818 12.3708 11.1605 13.3494 12.3636 13.3494H14.909C15.5106 13.3494 15.9999 12.8601 15.9999 12.2585V10.0767C15.9999 9.47517 15.5106 8.98584 14.909 8.98584ZM12.3636 11.8949C11.9627 11.8949 11.6363 11.5685 11.6363 11.1676C11.6363 10.7667 11.9627 10.4404 12.3636 10.4404C12.7645 10.4404 13.0908 10.7667 13.0908 11.1676C13.0909 11.5685 12.7645 11.8949 12.3636 11.8949Z" fill="#F8892C"/>
</g>
<defs>
<clipPath id="clip0">
<rect width="16" height="16" fill="white" transform="translate(0 0.98584)"/>
</clipPath>
</defs>
</svg>
