<svg width="16" height="17" viewBox="0 0 16 17" fill="none" xmlns="http://www.w3.org/2000/svg">
<path d="M6.36417 8.01696L11.7905 4.88411L9.23835 3.41064L3.81204 6.54349L6.36417 8.01696Z" fill="#F8892C"/>
<path d="M6.15625 8.39579L0.71875 5.2627V11.5294L6.15625 14.6625V8.39579Z" fill="#F8892C"/>
<path d="M11.5625 11.6035H10.9688V12.1973H11.5625V11.6035Z" fill="#F8892C"/>
<path d="M6.59375 8.39579V14.6625L9.5625 12.9458V8.42198C9.5613 8.17303 9.65903 7.93381 9.83421 7.75693C10.0094 7.58005 10.2477 7.48 10.4966 7.47879H11.275C11.3193 7.31828 11.4147 7.17656 11.5468 7.07508C11.6788 6.97359 11.8403 6.91785 12.0068 6.91629H12V5.2627L6.59375 8.39579Z" fill="#F8892C"/>
<path d="M13.2762 7.35352H12.005C11.8297 7.35352 11.6875 7.49568 11.6875 7.67105V7.69223C11.6875 7.8676 11.8297 8.00977 12.005 8.00977H13.2762C13.4516 8.00977 13.5938 7.8676 13.5938 7.69223V7.67105C13.5938 7.49568 13.4516 7.35352 13.2762 7.35352Z" fill="#F8892C"/>
<path d="M8.80087 3.15779L6.36418 1.75098L0.937897 4.88385L3.37455 6.29066L8.80087 3.15779Z" fill="#F8892C"/>
<path d="M14.7786 7.91602H13.9917C13.9448 8.07086 13.8489 8.20632 13.7185 8.3021C13.5881 8.39788 13.4302 8.44881 13.2684 8.44727H12.0068C11.845 8.44881 11.6871 8.39788 11.5567 8.3021C11.4263 8.20632 11.3304 8.07086 11.2835 7.91602H10.4966C10.4308 7.91655 10.3657 7.93006 10.3051 7.95578C10.2445 7.98149 10.1895 8.0189 10.1434 8.06587C10.0973 8.11284 10.0609 8.16845 10.0363 8.22951C10.0117 8.29056 9.99934 8.35588 9.99999 8.4217V14.7373C9.99961 14.8024 10.0122 14.8669 10.0371 14.927C10.062 14.9871 10.0987 15.0417 10.1449 15.0874C10.1912 15.1332 10.2461 15.1692 10.3065 15.1935C10.3669 15.2177 10.4315 15.2296 10.4966 15.2285H14.7786C14.844 15.2297 14.909 15.2179 14.9698 15.1938C15.0305 15.1697 15.0859 15.1337 15.1327 15.088C15.1794 15.0423 15.2167 14.9878 15.2422 14.9276C15.2677 14.8674 15.281 14.8027 15.2813 14.7373V8.4217C15.2812 8.28813 15.2284 8.15998 15.1342 8.06524C15.04 7.9705 14.9122 7.91686 14.7786 7.91602ZM10.5312 9.3858C10.531 9.3571 10.5365 9.32865 10.5473 9.30206C10.5581 9.27548 10.5741 9.25129 10.5942 9.23088C10.6144 9.21046 10.6384 9.19423 10.6649 9.1831C10.6913 9.17197 10.7197 9.16616 10.7484 9.16602H11.7789C11.8372 9.16615 11.8932 9.18931 11.9346 9.23046C11.976 9.27161 11.9995 9.32743 12 9.3858V9.53298C11.9997 9.59107 11.9764 9.64667 11.9352 9.68759C11.8939 9.7285 11.8381 9.75139 11.7801 9.75123C11.734 9.75275 11.6887 9.73913 11.6512 9.71245C11.6136 9.68576 11.5858 9.6475 11.5721 9.60352H10.9687V10.1973H10.9774C11.0354 10.1973 11.091 10.2203 11.1321 10.2613C11.1731 10.3024 11.1961 10.358 11.1961 10.416C11.1961 10.474 11.1731 10.5297 11.1321 10.5707C11.091 10.6117 11.0354 10.6348 10.9774 10.6348H10.7484C10.7198 10.6348 10.6914 10.6291 10.665 10.6181C10.6386 10.6071 10.6146 10.591 10.5944 10.5707C10.5742 10.5504 10.5582 10.5263 10.5474 10.4998C10.5366 10.4733 10.5311 10.4449 10.5312 10.4163V9.3858ZM10.5312 11.3848C10.5312 11.3267 10.5543 11.2711 10.5953 11.2301C10.6363 11.1891 10.692 11.166 10.75 11.166H11.7812C11.8393 11.166 11.8949 11.1891 11.9359 11.2301C11.977 11.2711 12 11.3267 12 11.3848V12.416C12 12.474 11.977 12.5297 11.9359 12.5707C11.8949 12.6117 11.8393 12.6348 11.7812 12.6348H10.75C10.692 12.6348 10.6363 12.6117 10.5953 12.5707C10.5543 12.5297 10.5312 12.474 10.5312 12.416V11.3848ZM10.9774 14.6348H10.7484C10.7202 14.6356 10.6921 14.6307 10.6657 14.6205C10.6394 14.6103 10.6154 14.5948 10.5952 14.5751C10.5749 14.5555 10.5588 14.5319 10.5478 14.5059C10.5369 14.4798 10.5312 14.4519 10.5312 14.4236V13.3932C10.5306 13.3344 10.5529 13.2778 10.5935 13.2353C10.6341 13.1929 10.6897 13.168 10.7484 13.166H11.7789C11.838 13.1678 11.8941 13.1925 11.9353 13.2349C11.9766 13.2773 11.9998 13.334 12 13.3932V13.604C11.9988 13.6615 11.975 13.7162 11.9339 13.7564C11.8927 13.7967 11.8375 13.8192 11.7799 13.8191C11.7224 13.819 11.6672 13.7964 11.6261 13.7561C11.585 13.7158 11.5614 13.661 11.5603 13.6035H10.9687V14.1973H10.9774C11.0354 14.1973 11.0911 14.2203 11.1321 14.2613C11.1731 14.3024 11.1962 14.358 11.1962 14.416C11.1962 14.474 11.1731 14.5297 11.1321 14.5707C11.0911 14.6117 11.0354 14.6348 10.9774 14.6348ZM12.5919 13.7829L11.7965 14.5783C11.7762 14.5986 11.7521 14.6147 11.7256 14.6257C11.699 14.6367 11.6706 14.6424 11.6418 14.6424C11.6131 14.6424 11.5847 14.6367 11.5581 14.6257C11.5316 14.6147 11.5075 14.5986 11.4872 14.5783L11.1375 14.2287C11.1172 14.2084 11.1011 14.1843 11.0901 14.1578C11.0791 14.1312 11.0734 14.1028 11.0734 14.074C11.0734 14.0453 11.0791 14.0169 11.0901 13.9903C11.1011 13.9638 11.1172 13.9397 11.1375 13.9194C11.1578 13.899 11.1819 13.8829 11.2085 13.8719C11.235 13.8609 11.2635 13.8553 11.2922 13.8553C11.3209 13.8553 11.3494 13.8609 11.3759 13.8719C11.4024 13.8829 11.4266 13.899 11.4469 13.9194L11.6417 14.1143L12.2824 13.4736C12.3234 13.4326 12.379 13.4096 12.4371 13.4096C12.4951 13.4096 12.5507 13.4326 12.5918 13.4736C12.6328 13.5147 12.6558 13.5703 12.6558 13.6283C12.6558 13.6863 12.6328 13.742 12.5918 13.783L12.5919 13.7829ZM12.5919 9.74389L11.7965 10.5393C11.7762 10.5596 11.7521 10.5757 11.7256 10.5867C11.699 10.5977 11.6706 10.6033 11.6418 10.6033C11.6131 10.6033 11.5847 10.5977 11.5581 10.5867C11.5316 10.5757 11.5075 10.5596 11.4872 10.5393L11.1375 10.1897C11.1172 10.1694 11.1011 10.1453 11.0901 10.1187C11.0791 10.0922 11.0734 10.0637 11.0734 10.035C11.0734 10.0063 11.0791 9.97784 11.0901 9.9513C11.1011 9.92476 11.1172 9.90064 11.1375 9.88033C11.1578 9.86001 11.1819 9.8439 11.2085 9.83291C11.235 9.82191 11.2635 9.81625 11.2922 9.81625C11.3209 9.81625 11.3494 9.82191 11.3759 9.83291C11.4024 9.8439 11.4266 9.86001 11.4469 9.88033L11.6417 10.0752L12.2824 9.43461C12.3234 9.39358 12.379 9.37054 12.4371 9.37054C12.4951 9.37054 12.5507 9.39358 12.5918 9.43461C12.6328 9.47564 12.6558 9.53128 12.6558 9.5893C12.6558 9.64732 12.6328 9.70296 12.5918 9.74398L12.5919 9.74389ZM14.5268 14.1348H13.1528C13.0948 14.1348 13.0392 14.1117 12.9982 14.0707C12.9571 14.0297 12.9341 13.974 12.9341 13.916C12.9341 13.858 12.9571 13.8024 12.9982 13.7613C13.0392 13.7203 13.0948 13.6973 13.1528 13.6973H14.5268C14.5848 13.6973 14.6404 13.7203 14.6815 13.7613C14.7225 13.8024 14.7455 13.858 14.7455 13.916C14.7455 13.974 14.7225 14.0297 14.6815 14.0707C14.6404 14.1117 14.5848 14.1348 14.5268 14.1348ZM14.5268 12.1348H13.1528C13.0948 12.1348 13.0392 12.1117 12.9982 12.0707C12.9571 12.0297 12.9341 11.974 12.9341 11.916C12.9341 11.858 12.9571 11.8024 12.9982 11.7613C13.0392 11.7203 13.0948 11.6973 13.1528 11.6973H14.5268C14.5848 11.6973 14.6404 11.7203 14.6815 11.7613C14.7225 11.8024 14.7455 11.858 14.7455 11.916C14.7455 11.974 14.7225 12.0297 14.6815 12.0707C14.6404 12.1117 14.5848 12.1348 14.5268 12.1348ZM14.5268 10.1348H13.1528C13.0948 10.1348 13.0392 10.1117 12.9982 10.0707C12.9571 10.0297 12.9341 9.97403 12.9341 9.91602C12.9341 9.858 12.9571 9.80236 12.9982 9.76134C13.0392 9.72031 13.0948 9.69727 13.1528 9.69727H14.5268C14.5848 9.69727 14.6404 9.72031 14.6815 9.76134C14.7225 9.80236 14.7455 9.858 14.7455 9.91602C14.7455 9.97403 14.7225 10.0297 14.6815 10.0707C14.6404 10.1117 14.5848 10.1348 14.5268 10.1348Z" fill="#F8892C"/>
</svg>
