<svg width="17" height="17" viewBox="0 0 17 17" fill="none" xmlns="http://www.w3.org/2000/svg">
<g clip-path="url(#clip0)">
<path d="M15.9423 11.8164L13.7094 9.58351C12.912 8.78607 11.5563 9.10508 11.2373 10.1417C10.9981 10.8595 10.2006 11.2582 9.48294 11.0987C7.88805 10.6999 5.73495 8.62658 5.33623 6.95194C5.09699 6.23421 5.57546 5.43677 6.29316 5.19756C7.32984 4.87858 7.64882 3.52293 6.85137 2.72548L4.61853 0.492634C3.98057 -0.0655784 3.02363 -0.0655784 2.46542 0.492634L0.950277 2.00778C-0.56487 3.60267 1.10977 7.82913 4.85776 11.5771C8.60575 15.3251 12.8322 17.0795 14.4271 15.4846L15.9423 13.9695C16.5005 13.3315 16.5005 12.3746 15.9423 11.8164Z" fill="#3B5998"/>
</g>
<defs>
<clipPath id="clip0">
<rect width="16" height="16" fill="white" transform="translate(0.37793 0.0739746)"/>
</clipPath>
</defs>
</svg>
