<svg width="17" height="17" viewBox="0 0 17 17" fill="none" xmlns="http://www.w3.org/2000/svg">
<g clip-path="url(#clip0)">
<path d="M11.0898 8.65602L16.4838 12.066V5.10202L11.0898 8.65602Z" fill="#3B5998"/>
<path d="M0.483398 5.10202V12.066L5.8774 8.65602L0.483398 5.10202Z" fill="#3B5998"/>
<path d="M15.4837 3.07397H1.48367C0.984672 3.07397 0.588672 3.44597 0.513672 3.92497L8.48367 9.17597L16.4537 3.92497C16.3787 3.44597 15.9827 3.07397 15.4837 3.07397Z" fill="#3B5998"/>
<path d="M10.1736 9.26012L8.75863 10.1921C8.67463 10.2471 8.57963 10.2741 8.48363 10.2741C8.38763 10.2741 8.29263 10.2471 8.20863 10.1921L6.79363 9.25912L0.515625 13.2301C0.592625 13.7051 0.986625 14.0741 1.48363 14.0741H15.4836C15.9806 14.0741 16.3746 13.7051 16.4516 13.2301L10.1736 9.26012Z" fill="#3B5998"/>
</g>
<defs>
<clipPath id="clip0">
<rect width="16" height="16" fill="white" transform="translate(0.483398 0.573975)"/>
</clipPath>
</defs>
</svg>
