<svg width="31" height="31" viewBox="0 0 31 31" fill="none" xmlns="http://www.w3.org/2000/svg">
<g clip-path="url(#clip0)">
<path d="M15.3779 30.1721C23.6622 30.1721 30.3779 23.4564 30.3779 15.1721C30.3779 6.88785 23.6622 0.172119 15.3779 0.172119C7.09366 0.172119 0.37793 6.88785 0.37793 15.1721C0.37793 23.4564 7.09366 30.1721 15.3779 30.1721Z" fill="#6F3FAA"/>
<path d="M21.885 8.40118C18.2339 7.51934 14.5763 6.48786 10.8321 7.79837C8.40782 8.70745 8.40782 11.3337 8.50884 13.556C8.50884 14.162 7.80179 14.9701 8.10478 15.6772C8.71081 17.6974 9.21589 19.7176 11.3371 20.7277C11.6401 20.9297 11.3371 21.3337 11.5391 21.6367C11.4381 21.6367 11.2361 21.7378 11.2361 21.8388C11.2361 22.3229 11.4533 23.0635 11.309 23.5409L17.7547 29.9839C24.3811 28.9286 29.56 23.5346 30.2887 16.8049L21.885 8.40118Z" fill="#512D84"/>
<path d="M23.3131 10.7146L23.3081 10.6947C22.9074 9.07446 21.1004 7.33586 19.4411 6.97416L19.4224 6.9703C16.7384 6.45831 14.0171 6.45831 11.3337 6.9703L11.3144 6.97416C9.65562 7.33586 7.84865 9.07457 7.44734 10.6947L7.44289 10.7146C6.94742 12.9773 6.94742 15.272 7.44289 17.5347L7.44734 17.5546C7.8316 19.1056 9.50393 20.7644 11.1014 21.2206V23.0293C11.1014 23.6839 11.8991 24.0054 12.3528 23.533L14.1853 21.6282C14.5828 21.6504 14.9804 21.6628 15.378 21.6628C16.729 21.6628 18.0806 21.535 19.4223 21.2791L19.441 21.2752C21.1004 20.9135 22.9073 19.1748 23.3081 17.5546L23.313 17.5348C23.8085 15.272 23.8085 12.9774 23.3131 10.7146ZM21.8628 17.2067C21.5952 18.2638 20.2233 19.5779 19.1332 19.8207C17.7062 20.0921 16.2678 20.2081 14.8308 20.1683C14.8022 20.1675 14.7747 20.1786 14.7549 20.1991C14.5509 20.4084 13.4169 21.5727 13.4169 21.5727L11.9938 23.0333C11.8897 23.1418 11.7069 23.0679 11.7069 22.9182V19.922C11.7069 19.8725 11.6715 19.8305 11.6229 19.8208C11.6226 19.8207 11.6224 19.8207 11.6221 19.8207C10.532 19.5779 9.16057 18.2637 8.8925 17.2066C8.44654 15.1614 8.44654 13.088 8.8925 11.0427C9.16057 9.98559 10.532 8.67145 11.6221 8.42864C14.1144 7.95461 16.6415 7.95461 19.1333 8.42864C20.2239 8.67145 21.5953 9.98559 21.8629 11.0427C22.3093 13.088 22.3093 15.1614 21.8628 17.2067Z" fill="white"/>
<path d="M17.7488 18.5897C17.5813 18.5388 17.4216 18.5047 17.2732 18.4432C15.7362 17.8055 14.3217 16.9829 13.2014 15.7219C12.5642 15.0048 12.0655 14.1952 11.644 13.3385C11.4441 12.9322 11.2756 12.51 11.1039 12.0905C10.9473 11.708 11.1779 11.3128 11.4208 11.0245C11.6486 10.754 11.9419 10.5471 12.2595 10.3944C12.5073 10.2754 12.7518 10.344 12.9328 10.5541C13.3241 11.0083 13.6837 11.4857 13.9746 12.0122C14.1536 12.3361 14.1045 12.732 13.7801 12.9523C13.7012 13.0059 13.6294 13.0688 13.556 13.1293C13.4915 13.1823 13.4309 13.2359 13.3868 13.3076C13.3061 13.4389 13.3022 13.5939 13.3541 13.7367C13.7541 14.836 14.4284 15.6909 15.5349 16.1514C15.712 16.225 15.8898 16.3107 16.0938 16.287C16.4354 16.2471 16.546 15.8723 16.7854 15.6766C17.0194 15.4853 17.3185 15.4828 17.5705 15.6422C17.8226 15.8019 18.0669 15.9731 18.3099 16.1462C18.5483 16.3161 18.7857 16.4822 19.0056 16.676C19.2171 16.8623 19.29 17.1066 19.1708 17.3593C18.9529 17.8223 18.6356 18.2073 18.178 18.4532C18.0488 18.5224 17.8945 18.5449 17.7488 18.5897C17.5813 18.5388 17.8945 18.5449 17.7488 18.5897Z" fill="white"/>
<path d="M15.3818 9.86508C17.3921 9.92145 19.0433 11.2556 19.3972 13.2431C19.4575 13.5817 19.4789 13.9279 19.5058 14.2717C19.5171 14.4162 19.4352 14.5536 19.2792 14.5555C19.1181 14.5574 19.0456 14.4226 19.035 14.2781C19.0143 13.9921 19 13.7047 18.9606 13.4211C18.7525 11.9235 17.5583 10.6845 16.0677 10.4187C15.8434 10.3787 15.6139 10.3682 15.3866 10.3443C15.243 10.3293 15.0549 10.3206 15.0231 10.142C14.9965 9.99229 15.1228 9.87311 15.2653 9.86544C15.304 9.86315 15.3429 9.86497 15.3818 9.86508C17.3922 9.92145 15.3429 9.86497 15.3818 9.86508Z" fill="white"/>
<path d="M18.437 13.8256C18.4336 13.8507 18.4319 13.9097 18.4172 13.9653C18.3638 14.1671 18.0577 14.1923 17.9874 13.9887C17.9664 13.9283 17.9633 13.8595 17.9632 13.7945C17.9625 13.3687 17.87 12.9434 17.6553 12.5729C17.4345 12.1921 17.0973 11.8721 16.7018 11.6783C16.4626 11.5612 16.2041 11.4884 15.9419 11.4451C15.8274 11.4261 15.7116 11.4147 15.5964 11.3986C15.4569 11.3793 15.3824 11.2904 15.3891 11.1529C15.3952 11.0241 15.4894 10.9314 15.6298 10.9394C16.0911 10.9655 16.5368 11.0654 16.947 11.2825C17.781 11.7243 18.2575 12.4214 18.3966 13.3524C18.4029 13.3946 18.4129 13.4364 18.4162 13.4787C18.424 13.5831 18.429 13.6877 18.437 13.8256C18.4336 13.8506 18.429 13.6877 18.437 13.8256Z" fill="white"/>
<path d="M17.1858 13.7769C17.0177 13.7799 16.9277 13.6868 16.9103 13.5327C16.8983 13.4252 16.8886 13.3162 16.863 13.2116C16.8125 13.0055 16.703 12.8146 16.5296 12.6883C16.4478 12.6288 16.3551 12.5853 16.258 12.5572C16.1347 12.5215 16.0065 12.5314 15.8835 12.5013C15.7498 12.4685 15.6759 12.3602 15.6969 12.2349C15.716 12.1207 15.827 12.0317 15.9517 12.0408C16.7311 12.097 17.2882 12.5 17.3677 13.4175C17.3734 13.4823 17.38 13.5507 17.3656 13.6127C17.3409 13.7186 17.2624 13.7717 17.1858 13.7769C17.0176 13.7799 17.2624 13.7717 17.1858 13.7769Z" fill="white"/>
<path d="M23.3134 10.7145L23.3085 10.6947C23.0838 9.78647 22.4171 8.84112 21.5824 8.12183L20.454 9.1219C21.125 9.65657 21.6999 10.3973 21.8633 11.0426C22.3097 13.0879 22.3097 15.1613 21.8633 17.2067C21.5957 18.2638 20.2237 19.5779 19.1337 19.8207C17.7066 20.0921 16.2682 20.2081 14.8312 20.1683C14.8027 20.1675 14.7752 20.1786 14.7553 20.1991C14.5513 20.4084 13.4173 21.5727 13.4173 21.5727L11.9942 23.0333C11.8901 23.1418 11.7073 23.068 11.7073 22.9182V19.922C11.7073 19.8724 11.672 19.8304 11.6234 19.8208C11.6231 19.8208 11.6228 19.8207 11.6225 19.8207C11.003 19.6827 10.2929 19.1986 9.7459 18.6124L8.63086 19.6005C9.32725 20.3581 10.2254 20.9705 11.1016 21.2207V23.0294C11.1016 23.684 11.8994 24.0055 12.353 23.5331L14.1855 21.6283C14.583 21.6505 14.9806 21.6629 15.3783 21.6629C16.7293 21.6629 18.0809 21.5351 19.4226 21.2792L19.4413 21.2754C21.1007 20.9137 22.9076 19.1751 23.3084 17.5548L23.3133 17.535C23.8088 15.272 23.8088 12.9774 23.3134 10.7145Z" fill="#D1D1D1"/>
<path d="M17.749 18.5897C17.8947 18.5449 17.5815 18.5388 17.749 18.5897V18.5897Z" fill="white"/>
<path d="M19.0063 16.6759C18.7864 16.4822 18.5489 16.316 18.3106 16.1461C18.0676 15.9729 17.8233 15.8017 17.5712 15.6421C17.3192 15.4826 17.0202 15.4851 16.7861 15.6764C16.5467 15.8722 16.4362 16.247 16.0945 16.2869C15.8905 16.3106 15.7127 16.2248 15.5356 16.1512C14.8548 15.868 14.3383 15.4349 13.9479 14.888L13.1182 15.6234C13.1463 15.656 13.1732 15.6895 13.2019 15.7217C14.3223 16.9827 15.7368 17.8054 17.2737 18.4431C17.422 18.5046 17.5818 18.5388 17.7494 18.5896C17.5818 18.5387 17.8951 18.5448 17.7494 18.5896C17.8951 18.5448 18.0494 18.5222 18.1787 18.453C18.6364 18.2071 18.9535 17.822 19.1715 17.3591C19.2907 17.1065 19.2178 16.8621 19.0063 16.6759Z" fill="#D1D1D1"/>
<path d="M15.3883 9.86551C15.3863 9.86551 15.3844 9.86529 15.3825 9.86529C15.3806 9.86515 15.383 9.86529 15.3883 9.86551Z" fill="white"/>
<path d="M15.3828 9.86505C15.3845 9.86505 15.3862 9.86523 15.3879 9.86523C15.4994 9.86921 17.3139 9.91919 15.3828 9.86505Z" fill="white"/>
<path d="M18.2649 11.061L17.9111 11.3745C18.467 11.9154 18.8503 12.6321 18.9599 13.4209C18.9993 13.7046 19.0138 13.9919 19.0344 14.278C19.0449 14.4225 19.1173 14.5574 19.2786 14.5555C19.4346 14.5535 19.5165 14.4163 19.5052 14.2717C19.4783 13.9279 19.4569 13.5817 19.3966 13.243C19.2417 12.373 18.8382 11.6283 18.2649 11.061Z" fill="#D1D1D1"/>
<path d="M18.3963 13.3521C18.295 12.6737 18.0136 12.1202 17.5461 11.6984L17.1934 12.011C17.3758 12.1729 17.5336 12.363 17.6551 12.5727C17.8698 12.9432 17.9623 13.3686 17.963 13.7944C17.9632 13.8594 17.9663 13.9282 17.9872 13.9887C18.0577 14.1924 18.3637 14.1672 18.417 13.9653C18.4317 13.9096 18.4334 13.8506 18.4368 13.8256C18.4334 13.8507 18.4287 13.6877 18.4368 13.8256C18.4287 13.6877 18.4238 13.5831 18.4159 13.4785C18.4128 13.4361 18.4026 13.3943 18.3963 13.3521Z" fill="#D1D1D1"/>
<path d="M18.4369 13.8256C18.4292 13.6876 18.4336 13.8506 18.4369 13.8256V13.8256Z" fill="white"/>
<path d="M17.1865 13.7769C17.1892 13.7767 17.1917 13.7753 17.1942 13.7751C17.1871 13.7751 17.1762 13.7752 17.165 13.7756C17.1723 13.7758 17.1789 13.7769 17.1865 13.7769Z" fill="white"/>
<path d="M17.1864 13.7775C17.1788 13.7776 17.1721 13.7765 17.1648 13.7762C17.1285 13.7772 17.0909 13.7792 17.1864 13.7775Z" fill="white"/>
<path d="M17.1942 13.7751C17.1916 13.7753 17.189 13.7767 17.1865 13.7769C17.2062 13.7755 17.2045 13.7751 17.1942 13.7751Z" fill="white"/>
<path d="M16.8317 12.3318L16.4727 12.6501C16.4925 12.6621 16.5119 12.6746 16.5307 12.6883C16.704 12.8145 16.8135 13.0054 16.864 13.2115C16.8897 13.3162 16.8992 13.425 16.9113 13.5326C16.9279 13.6799 17.0115 13.7704 17.1654 13.7757C17.1765 13.7754 17.1876 13.7751 17.1945 13.7751C17.2686 13.7669 17.3428 13.715 17.3666 13.6125C17.3809 13.5506 17.3744 13.4821 17.3687 13.4174C17.324 12.9044 17.1301 12.5524 16.8317 12.3318Z" fill="#D1D1D1"/>
</g>
<defs>
<clipPath id="clip0">
<rect width="30" height="30" fill="white" transform="translate(0.37793 0.172119)"/>
</clipPath>
</defs>
</svg>
